<svg xmlns="http://www.w3.org/2000/svg" width="24" height="24" viewBox="0 0 24 24" fill="none" stroke="currentColor" stroke-width="2" stroke-linecap="round" stroke-linejoin="round">
    <path d="M19.14,12.94a2,2,0,0,1,0-1.88l1.66-1.29a2,2,0,0,0,.6-2.56l-1.41-2.45a2,2,0,0,0-2.56-.6l-1.9, .76a8.38,8.38,0,0,0-1.58-.68l-.45-2.09A2,2,0,0,0,12.5,1h-1a2,2,0,0,0-1.94,1.62l-.45,2.09a8.38,8.38,0,0,0-1.58.68l-1.9-.76a2,2,0,0,0-2.56.6L1.6,7.21a2,2,0,0,0,.6,2.56l1.66,1.29a2,2,0,0,1,0,1.88l-1.66,1.29a2,2,0,0,0-.6,2.56l1.41,2.45a2,2,0,0,0,2.56.6l1.9-.76a8.38,8.38,0,0,0,1.58.68l.45,2.09A2,2,0,0,0,11.5,23h1a2,2,0,0,0,1.94-1.62l.45-2.09a8.38,8.38,0,0,0,1.58-.68l1.9.76a2,2,0,0,0,2.56-.6l1.41-2.45a2,2,0,0,0-.6-2.56Z"/>
    <circle cx="12" cy="12" r="3"/>
</svg>